simulation
nRows=75
nColumns=15
endheader
time  TH_x TH_y TH_z SC_y  SC_z  SC_x  AC_y  AC_z  AC_x  GH_y  GH_z  GH_yy  EL_x  PS_y
1.540000  0.000000  0.000000  0.000000  -29.092467  -1.442615  3.731050  68.209832  16.539620  3.951014  60.013330  43.321098  -70.746781  27.135528  0.000000
1.550000  0.000000  0.000000  0.000000  -29.102010  -1.387579  3.768904  68.077323  16.570664  3.930688  59.816977  43.408620  -70.557828  27.013064  0.000000
1.560000  0.000000  0.000000  0.000000  -29.112534  -1.332790  3.807353  67.944995  16.603686  3.910170  59.615518  43.498298  -70.360359  26.888373  0.000000
1.570000  0.000000  0.000000  0.000000  -29.124076  -1.278365  3.846403  67.813135  16.638706  3.889481  59.409075  43.590066  -70.154232  26.761605  0.000000
1.580000  0.000000  0.000000  0.000000  -29.136673  -1.224418  3.886059  67.682029  16.675743  3.868645  59.197776  43.683856  -69.939313  26.632911  0.000000
1.590000  0.000000  0.000000  0.000000  -29.150362  -1.171068  3.926325  67.551965  16.714816  3.847681  58.981754  43.779597  -69.715480  26.502450  0.000000
1.600000  0.000000  0.000000  0.000000  -29.165178  -1.118429  3.967203  67.423230  16.755941  3.826612  58.761151  43.877219  -69.482625  26.370384  0.000000
1.610000  0.000000  0.000000  0.000000  -29.181158  -1.066617  4.008696  67.296108  16.799134  3.805458  58.536114  43.976647  -69.240655  26.236880  0.000000
1.620000  0.000000  0.000000  0.000000  -29.198333  -1.015749  4.050805  67.170883  16.844409  3.784242  58.306797  44.077808  -68.989491  26.102110  0.000000
1.630000  0.000000  0.000000  0.000000  -29.216737  -0.965940  4.093531  67.047836  16.891777  3.762984  58.073361  44.180622  -68.729069  25.966251  0.000000
1.640000  0.000000  0.000000  0.000000  -29.236401  -0.917302  4.136871  66.927246  16.941250  3.741705  57.835976  44.285013  -68.459344  25.829483  0.000000
1.650000  0.000000  0.000000  0.000000  -29.257353  -0.869949  4.180824  66.809388  16.992836  3.720428  57.594817  44.390900  -68.180287  25.691991  0.000000
1.660000  0.000000  0.000000  0.000000  -29.279623  -0.823992  4.225386  66.694532  17.046541  3.699171  57.350066  44.498200  -67.891889  25.553965  0.000000
1.670000  0.000000  0.000000  0.000000  -29.303235  -0.779540  4.270551  66.582943  17.102369  3.677955  57.101914  44.606830  -67.594161  25.415597  0.000000
1.680000  0.000000  0.000000  0.000000  -29.328213  -0.736702  4.316313  66.474883  17.160323  3.656802  56.850559  44.716704  -67.287135  25.277085  0.000000
1.690000  0.000000  0.000000  0.000000  -29.354579  -0.695581  4.362662  66.370605  17.220402  3.635729  56.596207  44.827735  -66.970864  25.138630  0.000000
1.700000  0.000000  0.000000  0.000000  -29.382352  -0.656281  4.409589  66.270356  17.282602  3.614758  56.339072  44.939835  -66.645427  25.000437  0.000000
1.710000  0.000000  0.000000  0.000000  -29.411549  -0.618901  4.457080  66.174375  17.346917  3.593906  56.079373  45.052912  -66.310925  24.862715  0.000000
1.720000  0.000000  0.000000  0.000000  -29.442184  -0.583538  4.505122  66.082894  17.413340  3.573194  55.817342  45.166875  -65.967484  24.725674  0.000000
1.730000  0.000000  0.000000  0.000000  -29.474267  -0.550285  4.553697  65.996134  17.481859  3.552638  55.553215  45.281630  -65.615258  24.589531  0.000000
1.740000  0.000000  0.000000  0.000000  -29.507806  -0.519232  4.602786  65.914308  17.552457  3.532256  55.287238  45.397081  -65.254430  24.454503  0.000000
1.750000  0.000000  0.000000  0.000000  -29.542807  -0.490463  4.652368  65.837617  17.625117  3.512066  55.019665  45.513131  -64.885209  24.320811  0.000000
1.760000  0.000000  0.000000  0.000000  -29.579270  -0.464060  4.702420  65.766252  17.699818  3.492083  54.750759  45.629683  -64.507837  24.188680  0.000000
1.770000  0.000000  0.000000  0.000000  -29.617192  -0.440099  4.752913  65.700390  17.776534  3.472325  54.480792  45.746636  -64.122585  24.058336  0.000000
1.780000  0.000000  0.000000  0.000000  -29.656568  -0.418650  4.803819  65.640196  17.855235  3.452806  54.210043  45.863887  -63.729758  23.930008  0.000000
1.790000  0.000000  0.000000  0.000000  -29.697387  -0.399780  4.855106  65.585821  17.935888  3.433540  53.938802  45.981335  -63.329696  23.803929  0.000000
1.800000  0.000000  0.000000  0.000000  -29.739634  -0.383549  4.906737  65.537402  18.018456  3.414542  53.667365  46.098875  -62.922771  23.680332  0.000000
1.810000  0.000000  0.000000  0.000000  -29.783289  -0.370011  4.958674  65.495060  18.102897  3.395824  53.396042  46.216399  -62.509395  23.559452  0.000000
1.820000  0.000000  0.000000  0.000000  -29.828330  -0.359213  5.010874  65.458900  18.189165  3.377398  53.125147  46.333802  -62.090016  23.441527  0.000000
1.830000  0.000000  0.000000  0.000000  -29.874727  -0.351196  5.063293  65.429007  18.277210  3.359276  52.855008  46.450973  -61.665121  23.326797  0.000000
1.840000  0.000000  0.000000  0.000000  -29.922446  -0.345994  5.115881  65.405453  18.366974  3.341467  52.585958  46.567801  -61.235240  23.215502  0.000000
1.850000  0.000000  0.000000  0.000000  -29.971448  -0.343632  5.168585  65.388286  18.458399  3.323982  52.318344  46.684176  -60.800940  23.107883  0.000000
1.860000  0.000000  0.000000  0.000000  -30.021688  -0.344130  5.221347  65.377537  18.551417  3.306828  52.052520  46.799984  -60.362837  23.004185  0.000000
1.870000  0.000000  0.000000  0.000000  -30.073115  -0.347496  5.274108  65.373216  18.645956  3.290013  51.788851  46.915109  -59.921587  22.904650  0.000000
1.880000  0.000000  0.000000  0.000000  -30.125673  -0.353733  5.326801  65.375309  18.741942  3.273543  51.527711  47.029437  -59.477895  22.809524  0.000000
1.890000  0.000000  0.000000  0.000000  -30.179299  -0.362833  5.379357  65.383780  18.839289  3.257422  51.269487  47.142849  -59.032513  22.719050  0.000000
1.900000  0.000000  0.000000  0.000000  -30.233922  -0.374777  5.431702  65.398572  18.937910  3.241655  51.014572  47.255226  -58.586242  22.633475  0.000000
1.910000  0.000000  0.000000  0.000000  -30.289467  -0.389540  5.483758  65.419599  19.037710  3.226244  50.763373  47.366449  -58.139932  22.553043  0.000000
1.920000  0.000000  0.000000  0.000000  -30.345850  -0.407084  5.535439  65.446752  19.138586  3.211190  50.516306  47.476396  -57.694488  22.478000  0.000000
1.930000  0.000000  0.000000  0.000000  -30.402982  -0.427361  5.586658  65.479894  19.240432  3.196493  50.273800  47.584944  -57.250865  22.408589  0.000000
1.940000  0.000000  0.000000  0.000000  -30.460762  -0.450311  5.637320  65.518860  19.343132  3.182150  50.036290  47.691970  -56.810078  22.345054  0.000000
1.950000  0.000000  0.000000  0.000000  -30.519087  -0.475864  5.687327  65.563457  19.446564  3.168161  49.804228  47.797349  -56.373193  22.287639  0.000000
1.960000  0.000000  0.000000  0.000000  -30.577841  -0.503938  5.736574  65.613462  19.550600  3.154518  49.578072  47.900953  -55.941339  22.236584  0.000000
1.970000  0.000000  0.000000  0.000000  -30.636902  -0.534436  5.784949  65.668621  19.655103  3.141218  49.358295  48.002657  -55.515701  22.192131  0.000000
1.980000  0.000000  0.000000  0.000000  -30.696140  -0.567252  5.832337  65.728646  19.759928  3.128251  49.145379  48.102331  -55.097529  22.154518  0.000000
1.990000  0.000000  0.000000  0.000000  -30.755415  -0.602263  5.878616  65.793218  19.864924  3.115608  48.939820  48.199845  -54.688134  22.123982  0.000000
2.000000  0.000000  0.000000  0.000000  -30.814578  -0.639336  5.923656  65.861983  19.969930  3.103279  48.742123  48.295069  -54.288891  22.100757  0.000000
2.010000  0.000000  0.000000  0.000000  -30.873471  -0.678319  5.967323  65.934551  20.074778  3.091249  48.552807  48.387870  -53.901245  22.085076  0.000000
2.020000  0.000000  0.000000  0.000000  -30.931925  -0.719050  6.009475  66.010497  20.179290  3.079505  48.372402  48.478116  -53.526704  22.077168  0.000000
2.030000  0.000000  0.000000  0.000000  -30.989763  -0.761348  6.049964  66.089356  20.283280  3.068030  48.201450  48.565673  -53.166851  22.077259  0.000000
2.040000  0.000000  0.000000  0.000000  -31.046797  -0.805020  6.088634  66.170626  20.386554  3.056805  48.040507  48.650405  -52.823337  22.085573  0.000000
2.050000  0.000000  0.000000  0.000000  -31.102828  -0.849853  6.125323  66.253763  20.488907  3.045809  47.890139  48.732176  -52.497888  22.102330  0.000000
2.060000  0.000000  0.000000  0.000000  -31.157645  -0.895621  6.159862  66.338184  20.590125  3.035020  47.750926  48.810851  -52.192303  22.127745  0.000000
2.070000  0.000000  0.000000  0.000000  -31.211029  -0.942078  6.192072  66.423261  20.689985  3.024413  47.623461  48.886289  -51.908461  22.162031  0.000000
2.080000  0.000000  0.000000  0.000000  -31.262747  -0.988961  6.221769  66.508324  20.788251  3.013961  47.508349  48.958354  -51.648318  22.205395  0.000000
2.090000  0.000000  0.000000  0.000000  -31.312555  -1.035990  6.248761  66.592658  20.884682  3.003635  47.406210  49.026904  -51.413910  22.258040  0.000000
2.100000  0.000000  0.000000  0.000000  -31.360196  -1.082866  6.272845  66.675500  20.979021  2.993403  47.317674  49.091800  -51.207355  22.320164  0.000000
2.110000  0.000000  0.000000  0.000000  -31.405402  -1.129269  6.293812  66.756042  21.071004  2.983232  47.243387  49.152900  -51.030857  22.391960  0.000000
2.120000  0.000000  0.000000  0.000000  -31.447892  -1.174861  6.311446  66.833425  21.160355  2.973084  47.184008  49.210062  -50.886704  22.473615  0.000000
2.130000  0.000000  0.000000  0.000000  -31.487371  -1.219283  6.325518  66.906741  21.246784  2.962922  47.140209  49.263142  -50.777274  22.565309  0.000000
2.140000  0.000000  0.000000  0.000000  -31.523532  -1.262157  6.335793  66.975030  21.329994  2.952703  47.112677  49.311998  -50.705034  22.667218  0.000000
2.150000  0.000000  0.000000  0.000000  -31.556052  -1.303080  6.342027  67.037280  21.409672  2.942384  47.102111  49.356485  -50.672541  22.779510  0.000000
2.160000  0.000000  0.000000  0.000000  -31.584596  -1.341630  6.343966  67.092425  21.485495  2.931919  47.109226  49.396456  -50.682449  22.902348  0.000000
2.170000  0.000000  0.000000  0.000000  -31.608815  -1.377362  6.341345  67.139342  21.557129  2.921257  47.134751  49.431768  -50.737505  23.035884  0.000000
2.180000  0.000000  0.000000  0.000000  -31.628343  -1.409807  6.333892  67.176853  21.624223  2.910347  47.179429  49.462273  -50.840555  23.180267  0.000000
2.190000  0.000000  0.000000  0.000000  -31.642801  -1.438473  6.321323  67.203722  21.686417  2.899133  47.244018  49.487824  -50.994544  23.335634  0.000000
2.200000  0.000000  0.000000  0.000000  -31.651793  -1.462844  6.303343  67.218651  21.743336  2.887559  47.329290  49.508273  -51.202519  23.502118  0.000000
2.210000  0.000000  0.000000  0.000000  -31.654909  -1.482379  6.279649  67.220283  21.794592  2.875561  47.436034  49.523473  -51.467632  23.679840  0.000000
2.220000  0.000000  0.000000  0.000000  -31.651721  -1.496512  6.249927  67.207199  21.839782  2.863078  47.565051  49.533275  -51.793138  23.868913  0.000000
2.230000  0.000000  0.000000  0.000000  -31.641786  -1.504649  6.213849  67.177915  21.878491  2.850040  47.717160  49.537529  -52.182403  24.069442  0.000000
2.240000  0.000000  0.000000  0.000000  -31.624643  -1.506173  6.171079  67.130882  21.910288  2.836379  47.893195  49.536086  -52.638901  24.281521  0.000000
2.250000  0.000000  0.000000  0.000000  -31.599815  -1.500437  6.121269  67.064485  21.934728  2.822020  48.094004  49.528796  -53.166218  24.505235  0.000000
2.260000  0.000000  0.000000  0.000000  -31.566805  -1.486767  6.064059  66.977039  21.951350  2.806885  48.320452  49.515508  -53.768056  24.740658  0.000000
2.270000  0.000000  0.000000  0.000000  -31.525102  -1.464461  5.999076  66.866791  21.959678  2.790896  48.573420  49.496072  -54.448232  24.987853  0.000000
2.280000  0.000000  0.000000  0.000000  -31.474173  -1.432788  5.925937  66.731916  21.959222  2.773968  48.853805  49.470336  -55.210681  25.246872  0.000000
